<svg xmlns="http://www.w3.org/2000/svg" width="30" height="23.14" viewBox="0 0 30 23.14"><defs><style>.cls-1{opacity:0.2;}</style></defs><title>アセット 2</title><g id="レイヤー_2" data-name="レイヤー 2"><g id="レイヤー_1-2" data-name="レイヤー 1"><g class="cls-1"><path d="M.23,21c2.91-2.67,5.46-5,5.46-7.56,0-1.39-.81-1.86-1-1.86C0,10.12,0,6.51,0,5.81A5.83,5.83,0,0,1,5.81,0c3.84,0,5.93,3.26,5.93,6.63,0,7.79-7.09,14.19-9.65,16.51Zm18.26,0C21.28,18.49,24,16,24,13.49a2,2,0,0,0-1.16-2A5.84,5.84,0,0,1,24.19,0C27.91,0,30,3,30,6.63c0,7.79-7.09,14.19-9.54,16.51Z"/></g></g></g></svg>