<svg xmlns="http://www.w3.org/2000/svg" width="30" height="23.14" viewBox="0 0 30 23.14"><defs><style>.cls-1{opacity:0.2;}</style></defs><title>アセット 1</title><g id="レイヤー_2" data-name="レイヤー 2"><g id="レイヤー_1-2" data-name="レイヤー 1"><g class="cls-1"><path d="M11.51,2.09C9,4.3,6,7,6,9.65a2,2,0,0,0,1,2c4.54,1.63,4.54,4.65,4.54,5.7a5.75,5.75,0,0,1-5.81,5.81C2,23.14,0,19.88,0,16.51,0,8.72,7,2.33,9.54,0Zm18.26,0C27.21,4.42,24.3,7,24.3,9.65a2,2,0,0,0,1,2c2.91.93,4.65,2.68,4.65,5.7a5.83,5.83,0,0,1-5.81,5.81c-3.84,0-5.93-3.26-5.93-6.63,0-7.67,7.09-14.19,9.65-16.51Z"/></g></g></g></svg>