<?xml version="1.0" encoding="UTF-8" standalone="no"?>
<svg width="170px" height="170px" viewBox="0 0 170 170" version="1.1" xmlns="http://www.w3.org/2000/svg" xmlns:xlink="http://www.w3.org/1999/xlink">
    <!-- Generator: Sketch 43.1 (39012) - http://www.bohemiancoding.com/sketch -->
    <title>form_icons</title>
    <desc>Created with Sketch.</desc>
    <defs>
        <circle id="path-1" cx="150" cy="50" r="10"></circle>
        <circle id="path-2" cx="50" cy="50" r="10"></circle>
        <circle id="path-3" cx="50" cy="80" r="10"></circle>
        <circle id="path-4" cx="150" cy="80" r="10"></circle>
        <rect id="path-5" x="140" y="110" width="20" height="20"></rect>
        <rect id="path-6" x="40" y="110" width="20" height="20"></rect>
        <rect id="path-7" x="40" y="140" width="20" height="20"></rect>
    </defs>
    <g id="Page-1" stroke="none" stroke-width="1" fill="none" fill-rule="evenodd">
        <rect id="bg" x="0" y="0" width="170" height="170"></rect>
        <g id="Oval">
            <use fill="#FFFFFF" fill-rule="evenodd" xlink:href="#path-1"></use>
            <circle stroke="#3a388c" stroke-width="1" cx="150" cy="50" r="9.5"></circle>
        </g>
        <circle id="Oval" fill="#3a388c" cx="150" cy="50" r="5"></circle>
        <g id="Oval">
            <use fill="#FFFFFF" fill-rule="evenodd" xlink:href="#path-2"></use>
            <circle stroke="#DDDDDD" stroke-width="1" cx="50" cy="50" r="9.5"></circle>
        </g>
        <g id="Oval">
            <use fill="#EEEEEE" fill-rule="evenodd" xlink:href="#path-3"></use>
            <circle stroke="#DDDDDD" stroke-width="1" cx="50" cy="80" r="9.5"></circle>
        </g>
        <g id="Oval">
            <use fill="#EEEEEE" fill-rule="evenodd" xlink:href="#path-4"></use>
            <circle stroke="#DDDDDD" stroke-width="1" cx="150" cy="80" r="9.5"></circle>
        </g>
        <circle id="Oval" fill="#666666" cx="150" cy="80" r="5"></circle>
        <g id="Rectangle">
            <use fill="#EEEEEE" fill-rule="evenodd" xlink:href="#path-5"></use>
            <rect stroke="#DDDDDD" stroke-width="1" x="140.5" y="110.5" width="19" height="19"></rect>
        </g>
        <g id="ic_done_black_24px" transform="translate(144.000000, 113.000000)">
            <polygon id="Shape" points="0 0 14 0 14 14 0 14"></polygon>
            <polygon id="Shape" fill="#666666" fill-rule="nonzero" points="5.25 9.45 2.8 7 1.98333333 7.81666667 5.25 11.0833333 12.25 4.08333333 11.4333333 3.26666667"></polygon>
        </g>
        <g id="Rectangle">
            <use fill="#EEEEEE" fill-rule="evenodd" xlink:href="#path-6"></use>
            <rect stroke="#DDDDDD" stroke-width="1" x="40.5" y="110.5" width="19" height="19"></rect>
        </g>
        <rect id="Rectangle" fill="#3a388c" x="140" y="140" width="20" height="20"></rect>
        <g id="ic_done_black_24px" transform="translate(144.000000, 143.000000)">
            <polygon id="Shape" points="0 0 14 0 14 14 0 14"></polygon>
            <polygon id="Shape" fill="#FFFFFF" fill-rule="nonzero" points="5.25 9.45 2.8 7 1.98333333 7.81666667 5.25 11.0833333 12.25 4.08333333 11.4333333 3.26666667"></polygon>
        </g>
        <g id="Rectangle">
            <use fill="#FFFFFF" fill-rule="evenodd" xlink:href="#path-7"></use>
            <rect stroke="#DDDDDD" stroke-width="1" x="40.5" y="140.5" width="19" height="19"></rect>
        </g>
    </g>
</svg>